<svg width="35" height="48" viewBox="0 0 35 48" fill="none" xmlns="http://www.w3.org/2000/svg">
<path d="M13.0633 7.50509H16.1193V9.6117C16.557 9.45743 17.0223 9.3767 17.5 9.3767C17.9778 9.3767 18.4431 9.45743 18.8807 9.6117V7.50509H21.9367C22.6992 7.50509 23.3174 6.8869 23.3174 6.12438C23.3174 5.36186 22.6992 4.74367 21.9367 4.74367H18.8807V1.68768C18.8807 0.925161 18.2625 0.306969 17.5 0.306969C16.7375 0.306969 16.1193 0.925161 16.1193 1.68768V4.74367H13.0633C12.3008 4.74367 11.6826 5.36186 11.6826 6.12438C11.6826 6.8869 12.3007 7.50509 13.0633 7.50509Z" fill="#091524"/>
<path d="M30.3081 24.3742C30.3081 24.3742 28.7929 22.859 26.8471 20.9132L2.88281 44.8779C3.41678 45.6391 4.02061 46.3593 4.69164 47.0305C4.89626 47.2355 5.23049 47.4354 5.66873 47.4354H11.2088L32.1171 26.5268C31.5831 25.7657 30.9793 25.0452 30.3081 24.3742Z" fill="#091524"/>
<path d="M18.4763 12.5426C18.2173 12.2837 17.8662 12.1381 17.5 12.1381C17.1338 12.1381 16.7826 12.2836 16.5237 12.5426L4.69176 24.3743C1.66625 27.3996 0 31.4227 0 35.7023C0 38.0526 0.503593 40.325 1.45776 42.3977L24.8945 18.9606C21.7789 15.8452 18.4764 12.5426 18.4763 12.5426Z" fill="#1A65C2"/>
<path d="M33.5422 29.007L15.1141 47.4354H29.3312C29.7003 47.4354 30.0489 47.2897 30.3082 47.0304C33.3337 44.005 35 39.982 35 35.7024C35 33.3521 34.4964 31.0797 33.5422 29.007Z" fill="#1A65C2"/>
</svg>
