<svg width="21" height="25" viewBox="0 0 21 25" fill="none" xmlns="http://www.w3.org/2000/svg">
<path d="M13.2857 8.57143H11.4286V14.1429H9.57143V8.57143H7.71429V6.71429H9.57143V4.85714H11.4286V6.71429H13.2857V8.57143Z" fill="white"/>
<path d="M10.5 0C5.25 0 0.978516 4.27148 0.978516 9.52148C0.978516 11.6801 1.66943 13.6635 3.03271 15.4173L10.5 25L17.9687 15.4159C19.3306 13.6643 20.0215 11.6815 20.0215 9.52148C20.0215 4.27148 15.75 0 10.5 0V0ZM10.5 16.1133C6.86509 16.1133 3.9082 13.1564 3.9082 9.52148C3.9082 5.88657 6.86509 2.92969 10.5 2.92969C14.1349 2.92969 17.0918 5.88657 17.0918 9.52148C17.0918 13.1564 14.1349 16.1133 10.5 16.1133Z" fill="white"/>
</svg>
