<svg width="35" height="48" viewBox="0 0 35 48" fill="none" xmlns="http://www.w3.org/2000/svg">
<path d="M13.0633 7.19813H16.1193V9.30473C16.557 9.15046 17.0223 9.06973 17.5 9.06973C17.9778 9.06973 18.4431 9.15046 18.8807 9.30473V7.19813H21.9367C22.6992 7.19813 23.3174 6.57993 23.3174 5.81741C23.3174 5.05489 22.6992 4.4367 21.9367 4.4367H18.8807V1.38071C18.8807 0.618192 18.2625 0 17.5 0C16.7375 0 16.1193 0.618192 16.1193 1.38071V4.4367H13.0633C12.3008 4.4367 11.6826 5.05489 11.6826 5.81741C11.6826 6.57993 12.3007 7.19813 13.0633 7.19813Z" fill="#F8FBFF"/>
<path d="M30.3081 24.0672C30.3081 24.0672 28.7929 22.552 26.8471 20.6062L2.88281 44.5709C3.41678 45.332 4.02061 46.0523 4.69164 46.7234C4.89626 46.9285 5.23049 47.1284 5.66873 47.1284H11.2088L32.1171 26.2198C31.5831 25.4587 30.9793 24.7382 30.3081 24.0672Z" fill="#F8FBFF"/>
<path d="M18.4763 12.2358C18.2173 11.9768 17.8662 11.8313 17.5 11.8313C17.1338 11.8313 16.7826 11.9767 16.5237 12.2358L4.69176 24.0675C1.66625 27.0928 0 31.1158 0 35.3955C0 37.7457 0.503593 40.0181 1.45776 42.0908L24.8945 18.6538C21.7789 15.5383 18.4764 12.2358 18.4763 12.2358Z" fill="#F8FBFF"/>
<path d="M33.5422 28.7L15.1141 47.1284H29.3312C29.7003 47.1284 30.0489 46.9827 30.3082 46.7234C33.3337 43.698 35 39.675 35 35.3954C35 33.0451 34.4964 30.7727 33.5422 28.7Z" fill="#F8FBFF"/>
</svg>
